<?xml version="1.0" encoding="iso-8859-1"?>
<!-- Generator: Adobe Illustrator 19.0.0, SVG Export Plug-In . SVG Version: 6.00 Build 0)  -->
<svg version="1.1" id="Layer_1" xmlns="http://www.w3.org/2000/svg" xmlns:xlink="http://www.w3.org/1999/xlink" x="0px" y="0px"
	 viewBox="0 0 67.622 70.6" style="enable-background:new 0 0 67.622 70.6;" xml:space="preserve">
<g>
	<path style="fill:#010101;" d="M23.3,54.5c-0.8,0-1.5-0.6-1.7-1.4c-0.1-0.3-1.5-7.2-9.6-7.2c-0.9,0-1.7-0.8-1.7-1.7
		s0.8-1.7,1.7-1.7c8.8,0,12.3,6.6,12.9,10c0.2,0.9-0.5,1.8-1.4,2C23.5,54.5,23.4,54.5,23.3,54.5z"/>
	<path style="fill:#010101;" d="M65,34.6c2-4,2.3-7.5,0.8-10.3c-1.5-2.9-4.6-4.2-6.9-4.9c0.9-1.8,1.1-4,0.4-6.1
		c-1-3.2-3.7-5.3-6.8-5.4C51.9,4.8,49.1,0,42,0c-4.1,0-6.7,2-8.1,4.4C32.5,2,29.9,0,25.8,0c-7.1,0-9.9,4.8-10.5,7.9
		c-3.1,0.1-5.7,2.2-6.8,5.4c-0.7,2.2-0.5,4.3,0.4,6.1c-2.3,0.7-5.4,2-6.9,4.9c-1.5,2.8-1.2,6.2,0.8,10.3C1.2,36.8,0,40,0,44.6
		c0,7.1,1.6,11.8,4.8,13.9c1.4,0.9,2.8,1.2,3.9,1.2c-0.2,3,0.5,5.2,2.2,6.7c3.3,2.9,8.8,1.7,11.2,1c2.3,2.1,4.4,3.2,6.4,3.2
		c0.6,0,1.2-0.1,1.7-0.3c1.6-0.6,2.8-1.9,3.6-3.4c0.8,1.5,1.9,2.8,3.6,3.4c0.6,0.2,1.1,0.3,1.7,0.3c2,0,4.1-1.1,6.4-3.2
		c2.4,0.7,7.9,1.8,11.2-1c1.7-1.5,2.4-3.7,2.2-6.7c1.2,0,2.6-0.3,3.9-1.2c3.2-2.1,4.8-6.8,4.8-13.9C67.8,40.1,66.6,36.9,65,34.6z
		 M29.3,67.2c-1.2,0.4-3.1-0.6-5.3-2.8c-0.5-0.5-1.2-0.6-1.8-0.4c-1.6,0.6-6.7,1.8-8.8,0c-1.1-1-1.4-3-0.7-5.8
		c0.1-0.6-0.1-1.3-0.6-1.7s-1.2-0.5-1.7-0.3c-0.1,0-1.9,0.7-3.5-0.4c-1.5-1-3.2-3.8-3.2-11.1c0-5.5,1.8-9.1,5.4-10.9
		c4-1.9,8.5-0.8,9.3-0.3c0.6,0.7,1.6,0.8,2.3,0.2c0.8-0.6,0.9-1.6,0.3-2.4c-1.4-1.9-7.1-2.8-11.8-1.3c-1.1,0.4-2.4,1-3.7,1.9
		c-1-2.5-1.2-4.5-0.4-6c1.4-2.7,5.7-3.6,7.3-3.7c0.7-0.1,1.3-0.6,1.5-1.3s-0.1-1.4-0.7-1.9c-1.7-1.2-1.8-3.4-1.4-4.8
		c0.5-1.5,1.7-3.1,3.8-3.1c3,0,5.2,0.8,6.6,2.4c2.2,2.4,1.9,5.9,1.9,6c-0.1,0.9,0.6,1.8,1.5,1.9c0.9,0.1,1.8-0.6,1.9-1.5
		c0-0.2,0.5-5.1-2.7-8.6c-1.5-1.7-3.5-2.7-6-3.2c0.4-1.5,2-4.7,7-4.7c5.8,0,6.3,5.6,6.4,7c0,0.1,0,0.1,0,0.2v50.5
		C32.1,63,31.1,66.6,29.3,67.2z M61.2,55.8c-1.6,1.1-3.4,0.4-3.5,0.4c-0.6-0.2-1.3-0.1-1.8,0.3c-0.5,0.4-0.7,1.1-0.6,1.7
		c0.6,2.9,0.4,4.8-0.7,5.8c-2.1,1.8-7.2,0.6-8.8,0c-0.6-0.2-1.3-0.1-1.8,0.4c-2.2,2.2-4.1,3.2-5.3,2.8c-1.8-0.6-2.8-4.2-3-6V10.7
		c0-0.1,0-0.1,0-0.2c0-1.2,0.6-7,6.4-7c5.1,0,6.6,3.1,7,4.7c-2.5,0.5-4.5,1.5-6,3.2c-3.2,3.5-2.7,8.4-2.7,8.6
		c0.1,0.9,0.9,1.6,1.9,1.5c0.9-0.1,1.6-0.9,1.5-1.9c0,0-0.3-3.6,1.9-6c1.4-1.6,3.7-2.4,6.6-2.4c2.1,0,3.3,1.6,3.8,3.1
		s0.4,3.6-1.4,4.8c-0.6,0.4-0.9,1.2-0.7,1.9s0.8,1.2,1.5,1.3c0.1,0,5.5,0.5,7.3,3.7c0.8,1.5,0.7,3.5-0.4,6c-1.3-1-2.6-1.6-3.7-1.9
		c-4.7-1.6-10.4-0.6-11.8,1.3c-0.6,0.8-0.5,1.9,0.3,2.5s1.8,0.5,2.3-0.3c0.7-0.5,5.3-1.7,9.3,0.3c3.6,1.8,5.4,5.4,5.4,10.9
		C64.4,52,62.6,54.7,61.2,55.8z"/>
	<path style="fill:#010101;" d="M44.7,54.5c-0.1,0-0.2,0-0.3,0c-0.9-0.2-1.5-1.1-1.4-2c0.6-3.5,4.1-10,12.9-10
		c0.9,0,1.7,0.8,1.7,1.7s-0.8,1.7-1.7,1.7c-8.1,0-9.5,6.9-9.6,7.2C46.3,53.9,45.6,54.5,44.7,54.5z"/>
</g>
</svg>
