<?xml version="1.0" encoding="iso-8859-1"?>
<!-- Generator: Adobe Illustrator 19.0.0, SVG Export Plug-In . SVG Version: 6.00 Build 0)  -->
<svg version="1.1" id="Layer_1" xmlns="http://www.w3.org/2000/svg" xmlns:xlink="http://www.w3.org/1999/xlink" x="0px" y="0px"
	 viewBox="0 0 76.1 64.3" style="enable-background:new 0 0 76.1 64.3;" xml:space="preserve">
<g>
	<path style="fill:#010101;" d="M38.2,64.3c-0.9,0-1.8-0.2-2.5-0.6c-0.8-0.4-1.5-1.3-2.4-3c-0.6-1.2-2-3.3-4.1-6.2
		c-2-2.9-4-5.4-5.9-7.4s-5.7-5.6-11.1-10.7c-4.1-3.8-7.1-7.3-9.1-10.2C1.1,23.1,0,19.6,0,15.9c0-4.8,2.1-8.8,6.3-11.7
		c4-2.8,8.8-4.2,14.2-4.2c4.2,0,8,1,11.3,3c2.4,1.5,4.5,3.8,6.2,6.9C41.6,3.3,47.5,0,55.5,0c5.6,0,10.4,1.4,14.3,4.3
		c4.2,3,6.3,6.8,6.3,11.3c0,3.4-0.9,6.7-2.6,9.8c-1.7,2.9-4.8,6.6-9.5,11c-5.3,4.9-9,8.4-10.9,10.4s-3.9,4.5-6,7.6s-3.5,5.2-4.2,6.4
		c-0.8,1.5-1.5,2.4-2.2,2.9C40.1,64,39.2,64.3,38.2,64.3z M37.8,60.2c0.1,0,0.2,0.1,0.4,0.1s0.4-0.1,0.5-0.1l0,0
		c0,0,0.3-0.3,0.9-1.4c0.7-1.4,2.2-3.6,4.4-6.8s4.4-5.9,6.4-8.1c2-2.1,5.6-5.6,11.1-10.6c4.4-4.1,7.3-7.5,8.8-10.1
		c1.4-2.4,2.1-5,2.1-7.8c0-3.2-1.5-5.8-4.6-8c-3.3-2.4-7.3-3.5-12-3.5c-7.8,0-12.9,3.8-15.6,11.5c-0.3,0.8-1,1.3-1.9,1.4
		c-0.9,0-1.6-0.5-1.9-1.3C34.7,11,32.6,8,30,6.4c-2.7-1.6-5.8-2.5-9.3-2.5c-4.6,0-8.7,1.2-11.9,3.5c-3.1,2.2-4.6,4.9-4.6,8.5
		c0,3,0.8,5.6,2.4,8.1c1.7,2.7,4.6,5.8,8.4,9.5c5.6,5.2,9.3,8.8,11.3,10.9c2,2.1,4.2,4.8,6.3,7.9c2.2,3.1,3.6,5.3,4.3,6.6
		C37.4,59.7,37.7,60.1,37.8,60.2z"/>
</g>
</svg>
