<?xml version="1.0" encoding="utf-8"?>
<!-- Generator: Adobe Illustrator 19.0.0, SVG Export Plug-In . SVG Version: 6.00 Build 0)  -->
<svg version="1.1" id="Layer_1" xmlns="http://www.w3.org/2000/svg" xmlns:xlink="http://www.w3.org/1999/xlink" x="0px" y="0px"
	 viewBox="0 0 265.9 256" style="enable-background:new 0 0 265.9 256;" xml:space="preserve">
<style type="text/css">
	.st0{fill:#010101;}
</style>
<g>
	<path class="st0" d="M242.4,93.6c-6.4-15.7-20.9-24.8-29.5-30.3l-1-0.7c-3.6-2.3-14.7-8.6-27.6-15.9c-16.4-9.3-35.1-19.9-44-25.5
		C125,11.7,99.5,0.9,84.7,0.1C80-0.1,73.5,0.2,66.4,1.2C58,2.3,36.6,6,18.9,15.4C-3.7,27.4,1.7,48.3,4.3,58.3l0.3,1.1
		c0.9,3.7,2.4,12,4,21.6c2.6,14.8,5.8,33.3,9.5,49.1c6.1,25.8,26.1,36.8,47.3,48.4c2,1.1,3.9,2.2,5.9,3.3c15.8,8.8,34,12.2,52.5,9.6
		c9.4-1.3,18.8-4.1,27.9-8.3c23-10.7,76.8-37.8,86.6-48.4C248,124.3,249.3,110.4,242.4,93.6z M22.7,22.6
		c11.5-6.1,28.2-11.1,44.8-13.4C74.1,8.3,80,7.9,84.3,8.1c7.8,0.4,20.8,4.5,33.3,10.2c6.4,7.5,20.4,24.5,27.8,36.3
		c-2.3,0.2-5.9,0.6-10.5,1.2c-16,2.2-45.3,7.9-61.9,21.8l-0.3,0.2c-19-8.9-58.2-31-58.4-48.6C16.3,26.8,19,24.6,22.7,22.6z
		 M164.3,110.5c0.3,7.3-0.6,12.7-1.4,15.8L80.4,79.5c15.9-11,41.1-15.8,55.4-17.8c4.9-0.7,8.8-1,10.9-1.2
		C160.4,82.1,163.8,99.6,164.3,110.5z M75.3,174.8c-2-1.1-4-2.2-6-3.3c-20.4-11.2-38.1-20.9-43.4-43.2c-3.7-15.5-6.9-33.9-9.4-48.6
		c-1.8-10.1-3.1-18.2-4.2-22.2L12,56.4c-1.9-7.5-3.4-15.2-0.8-21.9c7.7,23.4,59.8,47,62.4,48.1l0,0l88.9,50.4
		c-2.6,6.4-11.3,24.3-34.5,49.6c-1.8,0.4-3.5,0.7-5.3,0.9C106,185.8,89.6,182.8,75.3,174.8z M232.4,129.4
		c-7.7,8.4-54.6,32.8-84.1,46.5c-4.4,2-8.9,3.7-13.4,5c20.2-22.9,28.3-39.1,31.1-45.9h0.1l1.3-3.1c0.5-1.2,12.7-30.8-16.6-76.2
		l-0.1-0.2c-5.4-9.6-16.4-23.5-24.3-33.1c3.4,1.8,6.6,3.6,9.7,5.5c9,5.7,27.7,16.3,44.3,25.7c12.7,7.2,23.8,13.5,27.2,15.7l1,0.7
		c7.8,5,20.9,13.3,26.4,26.6C240.7,110.6,239.9,121.2,232.4,129.4z"/>
	<g>
		<path class="st0" d="M5.7,239.8h4.5c2.2,0,2.8,0,3.1-0.3h0.3v2.4v2.6h-0.2c-0.4-0.3-0.9-0.3-3-0.3H5.8v1.4c0,8,0,9.3,0.5,9.7v0.3
			H3.2H0v-0.3c0.5-0.3,0.5-1.7,0.5-12.1v-4c0-9.8,0-11-0.4-11.3v-0.4h7.4h7.3c0,1.8,0,2.9,0,5h-0.3c-0.3-0.4-1.8-0.5-4-0.5H5.9
			L5.7,239.8L5.7,239.8z"/>
		<path class="st0" d="M26,239.2c0-9.8,0-11.3-0.4-11.5v-0.2h3.2H32v0.2c-0.5,0.2-0.5,1.7-0.5,11.5v3.7c0,2.7,0.3,4.4,1.1,5.7
			c1,1.6,3,2.4,5,2.4c2.1,0,3.8-0.8,4.9-2.3c0.9-1.3,1.3-3.2,1.3-5.9v-3.6c0-9.8,0-11.3-0.5-11.5v-0.2h3.2h3.1v0.2
			c-0.4,0.2-0.4,1.7-0.4,11.5v3.6c0,3.9-0.5,6.3-1.8,8.4c-1.5,2.6-4.9,4.9-9.5,4.9c-4.8,0-8.4-1.9-10.2-5.3
			c-1.1-1.9-1.5-4.2-1.5-7.7L26,239.2L26,239.2z"/>
		<path class="st0" d="M67.1,232H62c-1.2,0-2.1,0.1-2.4,0.6h-0.3v-5.1H68h3.6h8.9v5.1h-0.3c-0.5-0.4-1.3-0.6-2.4-0.6h-5.2v11.2
			c0,10.5,0,12.2,0.5,12.2v0.2h-3.2h-3.2v-0.2c0.5-0.3,0.5-1.7,0.5-12.2L67.1,232L67.1,232z"/>
		<path class="st0" d="M90.6,239.2c0-9.8,0-11.3-0.4-11.5v-0.2h3.2h3.2v0.2c-0.5,0.2-0.5,1.7-0.5,11.5v3.7c0,2.7,0.3,4.4,1.1,5.7
			c1,1.6,3,2.4,5,2.4c2.1,0,3.8-0.8,4.9-2.3c0.9-1.3,1.3-3.2,1.3-5.9v-3.6c0-9.8,0-11.3-0.5-11.5v-0.2h3.2h3.1v0.2
			c-0.4,0.2-0.4,1.7-0.4,11.5v3.6c0,3.9-0.5,6.3-1.8,8.4c-1.5,2.6-4.9,4.9-9.5,4.9c-4.8,0-8.4-1.9-10.2-5.3
			c-1.1-1.9-1.5-4.2-1.5-7.7L90.6,239.2L90.6,239.2z"/>
		<path class="st0" d="M126.3,239.2c0-9.8,0-11.3-0.4-11.4v-0.2c0.6,0,1.6-0.1,2.6-0.1c0.9,0,2.4-0.1,3.4-0.1c2.1,0,3.8,0.2,5.4,0.7
			c2.2,0.7,5.3,2.8,5.3,7.6c0,3.3-1.7,5.5-3,6.4c-0.7,0.5-1.5,1-2.1,1.3v0.1c0.5,0.7,1.1,1.6,6.5,9.1c0.9,1.2,2,2.6,2.3,2.8v0.2
			h-3.1h-2.3c-0.3,0-0.8,0-1.2-0.1c-2.1-3.1-4.5-6.8-7.4-11h-1v1.4c0,7.7,0,9.3,0.4,9.5v0.2h-3h-3v-0.2c0.4-0.2,0.4-1.7,0.4-12.2
			L126.3,239.2L126.3,239.2z M137.3,236c0-2.6-1.7-4.1-4.4-4.1c-0.6,0-1.1,0-1.4,0.1v8.6c0.3,0,0.7,0,1,0c1,0,2-0.3,2.7-0.7
			C136.2,239.3,137.3,238.1,137.3,236L137.3,236z"/>
		<path class="st0" d="M156,239.2c0-9.8,0-11.3-0.4-11.5v-0.2h7.4h7.3c0,1.6,0,2.9,0,5h-0.2c-0.3-0.4-1.9-0.5-4.1-0.5h-4.6v7.1h4.6
			c2.2,0,2.9,0,3.2-0.3h0.2v2.4v2.6h-0.2c-0.2-0.3-1-0.3-3.1-0.3h-4.6v6.8c0,0.3,0,0.5,0.3,0.6c1.9,0,4.4,0,6,0
			c1.5,0,2.5-0.1,2.8-0.4h0.2c0,2.2,0,3.3,0,5h-7h-8v-0.2c0.5-0.2,0.5-1.7,0.5-12.2L156,239.2L156,239.2z"/>
		<path class="st0" d="M180.9,241.5c0-8.6,6.7-14.4,16.2-14.4c1.4,0,2.6,0.1,3.7,0.2c0.9,0.1,1.9,0.3,2.8,0.5
			c-0.1,1.8-0.1,3-0.2,5.4h-0.2c-0.4-0.4-1-0.7-1.7-0.9c-1-0.3-2.4-0.5-4.1-0.5c-6.3,0-10.7,3.7-10.7,9.7c0,5.9,3.9,9.8,9.4,9.8
			c0.8,0,1.7-0.1,2.5-0.3v-2c0-3.8,0-6.1-0.5-6.4v-0.3c1.2,0,2.2,0,3.1,0c1.4,0,2.2,0,3.1,0v0.3c-0.4,0.3-0.4,1.4-0.4,6.2v2.5
			c0,1.4,0,2.8,0,3.6c-1.9,0.7-4.4,1.1-7.7,1.1C187.6,256,180.9,250.5,180.9,241.5L180.9,241.5z"/>
		<path class="st0" d="M216.7,239.2c0-9.8,0-11.3-0.4-11.5v-0.2h7.4h7.3c0,1.6,0,2.9,0,5h-0.2c-0.2-0.4-1.9-0.5-4.1-0.5h-4.6v7.1
			h4.6c2.2,0,2.9,0,3.2-0.3h0.2v2.4v2.6h-0.2c-0.3-0.3-1-0.3-3.1-0.3h-4.6v6.8c0,0.3,0,0.5,0.2,0.6c1.9,0,4.4,0,6,0
			c1.5,0,2.5-0.1,2.8-0.4h0.2c0,2.2,0,3.3,0,5h-7h-8v-0.2c0.5-0.2,0.5-1.7,0.5-12.2v-3.9H216.7z"/>
		<path class="st0" d="M266.6,256h-0.7c-6.3-6.2-10.1-9.9-12.5-12.4c-1.7-1.7-3-3-5-5.3h-0.1c0.1,1.4,0.1,2.6,0.1,5.5
			c0,9.9,0,11.4,0.5,11.6v0.2h-3.1H243v-0.2c0.5-0.2,0.5-1.7,0.5-12.2v-16h0.7c6.5,6.4,10.3,10.3,12.7,12.7c1.6,1.6,3,3.1,4.8,5h0.1
			c0-1.7,0-2.9,0-6.2c0-9.3,0-10.8-0.5-11.1v-0.2h3.1h2.8v0.2c-0.4,0.2-0.4,1.7-0.4,11.5L266.6,256L266.6,256z"/>
	</g>
</g>
</svg>
