<?xml version="1.0" encoding="iso-8859-1"?>
<!-- Generator: Adobe Illustrator 19.0.0, SVG Export Plug-In . SVG Version: 6.00 Build 0)  -->
<svg version="1.1" id="Layer_1" xmlns="http://www.w3.org/2000/svg" xmlns:xlink="http://www.w3.org/1999/xlink" x="0px" y="0px"
	 viewBox="0 0 415.901 306.375" style="enable-background:new 0 0 415.901 306.375;" xml:space="preserve">
<g>
	<path style="fill:#010101;" d="M317.656,93.526c-6.449-15.656-20.898-24.832-29.527-30.316l-1.035-0.656
		c-3.641-2.32-14.727-8.621-27.566-15.922c-16.438-9.344-35.07-19.938-43.969-25.5c-15.252-9.537-40.838-20.303-55.582-21.061
		c-4.721-0.246-11.213,0.148-18.281,1.113c-8.398,1.148-29.838,4.83-47.5,14.242C71.62,27.451,77.013,48.307,79.607,58.33
		l0.275,1.07c0.949,3.727,2.383,12,4.043,21.578c2.574,14.844,5.777,33.32,9.5,49.066c6.094,25.773,26.117,36.762,47.316,48.398
		c1.955,1.07,3.926,2.154,5.904,3.258c15.82,8.826,33.957,12.158,52.455,9.633c9.434-1.289,18.814-4.082,27.881-8.303
		c23.043-10.717,76.832-37.771,86.566-48.359C323.195,124.177,324.578,110.335,317.656,93.526z M97.956,22.487
		c11.463-6.107,28.219-11.107,44.82-13.377c6.588-0.898,12.549-1.273,16.787-1.051c7.793,0.4,20.758,4.504,33.34,10.158
		c6.375,7.512,20.447,24.477,27.838,36.328c-2.285,0.195-5.918,0.559-10.465,1.18c-16,2.186-45.32,7.918-61.926,21.766l-0.295,0.246
		c-19.033-8.879-58.227-31.008-58.445-48.648C91.572,26.681,94.263,24.454,97.956,22.487z M239.566,110.413
		c0.324,7.254-0.578,12.662-1.359,15.84l-82.494-46.816c15.906-10.99,41.119-15.82,55.377-17.766
		c4.934-0.674,8.82-1.039,10.93-1.211C235.605,81.999,239.074,99.464,239.566,110.413z M150.542,174.716
		c-1.994-1.115-3.982-2.205-5.953-3.287c-20.447-11.221-38.105-20.914-43.379-43.223c-3.668-15.512-6.85-33.855-9.404-48.594
		c-1.758-10.145-3.146-18.156-4.174-22.184l-0.283-1.104c-1.941-7.51-3.355-15.158-0.822-21.889
		c7.66,23.359,59.83,46.953,62.389,48.096l0.02-0.045l88.873,50.441c-2.625,6.434-11.289,24.303-34.471,49.562
		c-1.773,0.359-3.545,0.676-5.32,0.918C181.251,185.698,164.835,182.69,150.542,174.716z M307.656,129.257
		c-7.684,8.359-54.574,32.812-84.051,46.523c-4.387,2.043-8.852,3.711-13.355,5.014c20.23-22.893,28.293-39.08,31.086-45.865
		l0.066,0.039l1.324-3.076c0.531-1.236,12.723-30.834-16.625-76.186l-0.125-0.191c-5.41-9.574-16.41-23.508-24.312-33.078
		c3.391,1.758,6.65,3.6,9.656,5.477c9.039,5.652,27.746,16.289,44.254,25.676c12.742,7.244,23.75,13.5,27.223,15.711l1.039,0.664
		c7.832,4.973,20.941,13.297,26.422,26.607C315.972,110.448,315.121,121.14,307.656,129.257z"/>
	<g>
		<path style="fill:#010101;" d="M80.977,239.739h4.537c2.162,0,2.773,0,3.133-0.254h0.252v2.414v2.629H88.61
			c-0.359-0.254-0.898-0.289-3.023-0.289h-4.609v1.367c0,7.961,0,9.328,0.469,9.652v0.252h-3.098h-3.205v-0.287
			c0.469-0.324,0.469-1.656,0.469-12.137v-3.961c0-9.758,0-10.984-0.432-11.344v-0.359h7.381h7.345c0,1.764-0.035,2.881-0.035,5.004
			h-0.324c-0.289-0.395-1.801-0.504-3.996-0.504h-4.574L80.977,239.739L80.977,239.739z"/>
		<path style="fill:#010101;" d="M101.242,239.126c0-9.758,0-11.271-0.432-11.488v-0.215h3.17h3.24v0.215
			c-0.469,0.217-0.469,1.73-0.469,11.488v3.709c0,2.666,0.287,4.43,1.08,5.689c1.008,1.586,2.953,2.449,5.006,2.449
			s3.781-0.758,4.861-2.305c0.9-1.297,1.262-3.168,1.262-5.906v-3.637c0-9.758,0-11.271-0.504-11.488v-0.215h3.168h3.061v0.215
			c-0.432,0.217-0.432,1.73-0.432,11.488v3.637c0,3.854-0.541,6.301-1.836,8.355c-1.514,2.629-4.934,4.896-9.543,4.896
			c-4.754,0-8.391-1.943-10.156-5.33c-1.117-1.943-1.477-4.176-1.477-7.742v-3.815H101.242z"/>
		<path style="fill:#010101;" d="M142.392,231.923h-5.15c-1.188,0-2.051,0.145-2.449,0.578h-0.287v-5.078h8.678h3.602h8.858v5.078
			h-0.252c-0.469-0.434-1.297-0.578-2.449-0.578h-5.186v11.164c0,10.516,0,12.172,0.539,12.207v0.217h-3.168h-3.242v-0.217
			c0.506-0.287,0.506-1.727,0.506-12.207V231.923z"/>
		<path style="fill:#010101;" d="M165.861,239.126c0-9.758,0-11.271-0.432-11.488v-0.215h3.168h3.242v0.215
			c-0.469,0.217-0.469,1.73-0.469,11.488v3.709c0,2.666,0.289,4.43,1.082,5.689c1.008,1.586,2.951,2.449,5.004,2.449
			s3.781-0.758,4.861-2.305c0.9-1.297,1.26-3.168,1.26-5.906v-3.637c0-9.758,0-11.271-0.504-11.488v-0.215h3.17h3.061v0.215
			c-0.432,0.217-0.432,1.73-0.432,11.488v3.637c0,3.854-0.541,6.301-1.838,8.355c-1.512,2.629-4.934,4.896-9.543,4.896
			c-4.752,0-8.391-1.943-10.154-5.33c-1.115-1.943-1.477-4.176-1.477-7.742v-3.815H165.861z"/>
		<path style="fill:#010101;" d="M201.574,239.126c0-9.758,0-11.271-0.434-11.416v-0.217c0.613-0.035,1.621-0.07,2.629-0.105
			c0.865-0.037,2.449-0.074,3.387-0.074c2.051,0,3.816,0.18,5.402,0.686c2.23,0.721,5.293,2.809,5.293,7.598
			c0,3.35-1.73,5.51-3.023,6.447c-0.688,0.539-1.477,1.043-2.09,1.258v0.074c0.504,0.719,1.117,1.584,6.516,9.074
			c0.867,1.188,1.98,2.629,2.344,2.844v0.217H218.5h-2.305c-0.324,0-0.793-0.037-1.152-0.145c-2.09-3.133-4.539-6.807-7.383-10.982
			h-0.973v1.441c0,7.742,0.035,9.254,0.432,9.469v0.217h-2.953h-3.025v-0.217c0.434-0.215,0.434-1.727,0.434-12.207L201.574,239.126
			L201.574,239.126z M212.523,235.921c0-2.592-1.695-4.105-4.395-4.105c-0.613,0-1.117,0.037-1.441,0.072v8.57
			c0.289,0.035,0.684,0.035,1.043,0.035c1.012,0,2.02-0.287,2.738-0.719c1.008-0.576,2.055-1.801,2.055-3.816V235.921z"/>
		<path style="fill:#010101;" d="M231.203,239.126c0-9.758,0-11.271-0.434-11.488v-0.215h7.418h7.309
			c0,1.621-0.035,2.881-0.035,5.004h-0.215c-0.254-0.395-1.875-0.504-4.07-0.504h-4.609v7.094h4.574c2.23,0,2.918-0.035,3.168-0.287
			h0.18v2.449v2.629h-0.18c-0.25-0.287-0.973-0.324-3.098-0.324h-4.645v6.807c0,0.324,0.035,0.504,0.254,0.648
			c1.871,0.035,4.355,0.035,6.012,0c1.512,0,2.484-0.074,2.773-0.434h0.215c-0.035,2.16-0.035,3.35-0.035,5.006h-7.023h-8.027
			v-0.217c0.469-0.215,0.469-1.727,0.469-12.207v-3.961H231.203z"/>
		<path style="fill:#010101;" d="M256.148,241.395c0-8.57,6.699-14.406,16.242-14.406c1.402,0,2.555,0.074,3.707,0.217
			c0.938,0.107,1.875,0.287,2.809,0.504c-0.07,1.801-0.105,2.99-0.18,5.402h-0.25c-0.363-0.396-0.973-0.686-1.73-0.9
			c-1.043-0.289-2.414-0.504-4.07-0.504c-6.266,0-10.695,3.672-10.695,9.65c0,5.941,3.926,9.795,9.363,9.795
			c0.828,0,1.695-0.072,2.484-0.252v-2.018c0-3.816-0.035-6.121-0.465-6.373v-0.252c1.188,0,2.195,0.035,3.094,0.035
			c1.371,0,2.199-0.035,3.098-0.035v0.252c-0.395,0.252-0.395,1.439-0.395,6.193v2.521c0,1.404,0,2.846,0.035,3.6
			c-1.945,0.686-4.355,1.117-7.742,1.117c-8.57,0-15.305-5.508-15.305-14.512L256.148,241.395L256.148,241.395z"/>
		<path style="fill:#010101;" d="M291.968,239.126c0-9.758,0-11.271-0.434-11.488v-0.215h7.418h7.312
			c0,1.621-0.035,2.881-0.035,5.004h-0.219c-0.25-0.395-1.871-0.504-4.066-0.504h-4.609v7.094h4.57c2.234,0,2.918-0.035,3.172-0.287
			h0.18v2.449v2.629h-0.18c-0.254-0.287-0.973-0.324-3.098-0.324h-4.645v6.807c0,0.324,0.035,0.504,0.25,0.648
			c1.875,0.035,4.359,0.035,6.016,0c1.512,0,2.484-0.074,2.773-0.434h0.215c-0.035,2.16-0.035,3.35-0.035,5.006h-7.023h-8.031
			v-0.217c0.469-0.215,0.469-1.727,0.469-12.207L291.968,239.126L291.968,239.126z"/>
		<path style="fill:#010101;" d="M341.8,255.872h-0.684c-6.305-6.195-10.086-9.941-12.535-12.389
			c-1.727-1.729-2.988-2.99-5.039-5.295h-0.074c0.074,1.441,0.074,2.559,0.074,5.475c0,9.904,0,11.416,0.469,11.631v0.217h-3.098
			h-2.809v-0.217c0.469-0.215,0.469-1.727,0.469-12.207v-15.953h0.719c6.48,6.445,10.301,10.264,12.746,12.748
			c1.586,1.621,3.027,3.061,4.754,5.041h0.109c-0.035-1.691-0.035-2.879-0.035-6.23c0-9.324,0-10.838-0.504-11.055v-0.215h3.094
			h2.773v0.215c-0.43,0.217-0.43,1.73-0.43,11.488v16.746H341.8z"/>
	</g>
</g>
<g>
	<path style="fill:#010101;" d="M7.883,282.293H2.736c-1.188,0-2.052,0.145-2.448,0.576H0v-5.076h8.675h3.6h8.854v5.076h-0.252
		c-0.468-0.432-1.296-0.576-2.447-0.576h-5.184v11.158c0,10.512,0,12.167,0.54,12.203v0.216h-3.167h-3.24v-0.216
		c0.504-0.288,0.504-1.729,0.504-12.203V282.293z"/>
	<path style="fill:#010101;" d="M31.931,289.492c0-9.755,0-11.267-0.432-11.482v-0.217h7.415h7.307c0,1.621-0.036,2.881-0.036,5.004
		h-0.216c-0.252-0.396-1.872-0.504-4.068-0.504h-4.607v7.092h4.572c2.231,0,2.916-0.037,3.167-0.289h0.18v2.448v2.628h-0.18
		c-0.252-0.288-0.972-0.324-3.096-0.324h-4.644v6.803c0,0.324,0.036,0.504,0.252,0.648c1.872,0.035,4.355,0.035,6.012,0
		c1.512,0,2.483-0.072,2.771-0.432h0.216c-0.036,2.159-0.036,3.348-0.036,5.003h-7.019h-8.027v-0.216
		c0.468-0.217,0.468-1.729,0.468-12.203L31.931,289.492L31.931,289.492z"/>
	<path style="fill:#010101;" d="M71.529,298.527c0,4.355-3.563,7.738-9.179,7.738c-1.872,0-4.031-0.359-5.292-0.899
		c0.072-1.836,0.108-2.735,0.18-5.292h0.216c0.36,0.469,0.864,0.756,1.404,1.008c0.792,0.324,1.872,0.504,3.06,0.504
		c2.124,0,3.852-1.151,3.852-3.238c0-1.26-0.684-2.305-2.052-3.42c-1.116-0.9-2.087-1.729-3.023-2.592
		c-2.016-1.836-3.384-3.888-3.384-6.803c0-4.141,2.988-7.92,9.143-7.92c1.332,0,2.952,0.217,3.888,0.504
		c-0.072,1.836-0.108,2.809-0.18,5.22h-0.216c-0.288-0.323-0.792-0.612-1.26-0.792c-0.504-0.145-1.152-0.252-1.836-0.252
		c-2.268,0-3.923,1.188-3.923,3.132c0,1.151,0.504,1.944,1.295,2.808c0.828,0.828,2.016,1.728,3.528,3.06
		c2.304,2.016,3.779,4.067,3.779,7.199V298.527z"/>
	<path style="fill:#010101;" d="M88.775,282.293h-5.148c-1.188,0-2.052,0.145-2.448,0.576h-0.288v-5.076h8.675h3.6h8.855v5.076
		h-0.252c-0.469-0.432-1.296-0.576-2.448-0.576h-5.183v11.158c0,10.512,0,12.167,0.539,12.203v0.216H91.51h-3.239v-0.216
		c0.504-0.288,0.504-1.729,0.504-12.203L88.775,282.293L88.775,282.293z"/>
	<path style="fill:#010101;" d="M118.222,293.451c0,10.475,0,11.771,0.504,12.203v0.216h-3.132h-3.276v-0.252
		c0.504-0.396,0.504-1.692,0.504-12.13v-3.996c0-9.755,0-11.086-0.467-11.447v-0.252h3.167h3.168v0.252
		c-0.468,0.361-0.468,1.656-0.468,11.447L118.222,293.451L118.222,293.451z"/>
	<path style="fill:#010101;" d="M154.616,306.23h-0.685c-6.299-6.191-10.078-9.936-12.525-12.383
		c-1.729-1.729-2.988-2.988-5.04-5.291h-0.071c0.071,1.439,0.071,2.555,0.071,5.471c0,9.898,0,11.41,0.468,11.627v0.216h-3.096
		h-2.807v-0.216c0.467-0.217,0.467-1.729,0.467-12.203v-15.945h0.721c6.479,6.443,10.295,10.258,12.742,12.742
		c1.584,1.619,3.023,3.06,4.752,5.039h0.107c-0.036-1.691-0.036-2.879-0.036-6.227c0-9.323,0-10.835-0.504-11.051v-0.217h3.096
		h2.771v0.217c-0.432,0.216-0.432,1.728-0.432,11.482v16.739H154.616z"/>
	<path style="fill:#010101;" d="M165.886,291.76c0-8.566,6.695-14.398,16.234-14.398c1.404,0,2.556,0.072,3.707,0.217
		c0.937,0.107,1.872,0.287,2.809,0.504c-0.072,1.799-0.108,2.987-0.18,5.398h-0.253c-0.36-0.396-0.972-0.684-1.728-0.899
		c-1.044-0.288-2.412-0.504-4.067-0.504c-6.263,0-10.69,3.671-10.69,9.647c0,5.938,3.924,9.79,9.358,9.79
		c0.828,0,1.692-0.071,2.483-0.252v-2.016c0-3.815-0.035-6.119-0.468-6.371v-0.252c1.188,0,2.196,0.036,3.096,0.036
		c1.368,0,2.196-0.036,3.096-0.036v0.252c-0.396,0.252-0.396,1.439-0.396,6.19v2.52c0,1.404,0,2.844,0.035,3.6
		c-1.943,0.685-4.355,1.117-7.738,1.117c-8.567,0-15.299-5.508-15.299-14.507v-0.036H165.886z"/>
	<path style="fill:#010101;" d="M217.654,291.76c0-8.566,6.695-14.398,16.234-14.398c1.403,0,2.555,0.072,3.707,0.217
		c0.936,0.107,1.871,0.287,2.808,0.504c-0.071,1.799-0.108,2.987-0.18,5.398h-0.252c-0.36-0.396-0.972-0.684-1.728-0.899
		c-1.045-0.288-2.412-0.504-4.068-0.504c-6.263,0-10.69,3.671-10.69,9.647c0,5.938,3.924,9.79,9.358,9.79
		c0.828,0,1.692-0.071,2.484-0.252v-2.016c0-3.815-0.036-6.119-0.469-6.371v-0.252c1.188,0,2.196,0.036,3.096,0.036
		c1.369,0,2.196-0.036,3.096-0.036v0.252c-0.396,0.252-0.396,1.439-0.396,6.19v2.52c0,1.404,0,2.844,0.036,3.6
		c-1.943,0.685-4.355,1.117-7.739,1.117c-8.567,0-15.298-5.508-15.298-14.507v-0.036H217.654z"/>
	<path style="fill:#010101;" d="M253.473,289.492c0-9.755,0-11.267-0.432-11.41v-0.217c0.612-0.035,1.62-0.072,2.628-0.107
		c0.863-0.036,2.447-0.072,3.383-0.072c2.053,0,3.816,0.18,5.4,0.684c2.23,0.721,5.291,2.809,5.291,7.596
		c0,3.348-1.729,5.507-3.023,6.443c-0.685,0.539-1.477,1.043-2.088,1.26v0.072c0.504,0.719,1.115,1.583,6.515,9.07
		c0.864,1.188,1.979,2.627,2.34,2.844v0.216h-3.096h-2.304c-0.324,0-0.792-0.036-1.152-0.144c-2.087-3.132-4.535-6.804-7.379-10.979
		h-0.972v1.439c0,7.738,0.036,9.25,0.433,9.467v0.216h-2.952h-3.023v-0.216c0.432-0.217,0.432-1.729,0.432-12.203L253.473,289.492
		L253.473,289.492z M264.415,286.289c0-2.592-1.691-4.104-4.391-4.104c-0.612,0-1.116,0.035-1.44,0.071v8.567
		c0.288,0.035,0.685,0.035,1.044,0.035c1.008,0,2.016-0.287,2.736-0.719c1.008-0.576,2.051-1.801,2.051-3.816L264.415,286.289
		L264.415,286.289z"/>
	<path style="fill:#010101;" d="M310.205,291.687c0,8.207-6.227,14.65-14.722,14.65c-8.206,0-14.614-6.371-14.614-14.398
		c0-8.278,6.443-14.506,14.975-14.506c8.279,0,14.361,6.084,14.361,14.219V291.687z M304.589,291.796
		c0-5.292-3.814-9.503-8.963-9.503c-5.326,0-9.143,4.14-9.143,9.574c0,5.328,3.816,9.539,9.143,9.539
		c5.328,0,8.963-4.211,8.963-9.574V291.796z"/>
	<path style="fill:#010101;" d="M321.369,289.492c0-9.755,0-11.267-0.433-11.482v-0.217h3.168h3.239v0.217
		c-0.468,0.216-0.468,1.728-0.468,11.482v3.707c0,2.664,0.288,4.428,1.079,5.688c1.009,1.584,2.952,2.447,5.004,2.447
		s3.779-0.756,4.859-2.303c0.9-1.296,1.26-3.168,1.26-5.903v-3.636c0-9.755,0-11.267-0.504-11.482v-0.217h3.168h3.06v0.217
		c-0.433,0.216-0.433,1.728-0.433,11.482v3.636c0,3.851-0.539,6.299-1.835,8.351c-1.513,2.628-4.932,4.896-9.539,4.896
		c-4.751,0-8.387-1.944-10.151-5.327c-1.115-1.943-1.475-4.176-1.475-7.739L321.369,289.492L321.369,289.492z"/>
	<path style="fill:#010101;" d="M380.225,306.23h-0.685c-6.299-6.191-10.078-9.936-12.525-12.383
		c-1.729-1.729-2.988-2.988-5.04-5.291h-0.071c0.071,1.439,0.071,2.555,0.071,5.471c0,9.898,0,11.41,0.468,11.627v0.216h-3.096
		h-2.807v-0.216c0.467-0.217,0.467-1.729,0.467-12.203v-15.945h0.721c6.479,6.443,10.295,10.258,12.742,12.742
		c1.584,1.619,3.023,3.06,4.752,5.039h0.107c-0.036-1.691-0.036-2.879-0.036-6.227c0-9.323,0-10.835-0.504-11.051v-0.217h3.096
		h2.771v0.217c-0.432,0.216-0.432,1.728-0.432,11.482v16.739H380.225z"/>
	<path style="fill:#010101;" d="M415.901,291.292c0,5.255-2.16,9.286-5.796,11.915c-2.592,1.907-6.047,2.771-10.043,2.771
		c-1.512,0-3.131-0.037-4.283-0.072c-0.972-0.036-2.051-0.072-2.879-0.145v-0.18c0.504-0.324,0.504-1.656,0.504-12.131v-3.959
		c0-9.755,0-10.979-0.469-11.23v-0.359c0.756-0.037,1.872-0.145,3.348-0.181c1.512-0.072,2.844-0.108,4.283-0.108
		c4.032,0,7.128,0.793,9.504,2.268c4.104,2.484,5.831,6.983,5.831,11.375V291.292z M410.249,291.435
		c0-3.023-1.188-5.688-3.275-7.307c-1.439-1.08-3.527-1.729-5.939-1.729c-0.828,0-1.62,0.072-2.268,0.145v18.25
		c0,0.145,0.072,0.216,0.18,0.216c0.576,0.071,1.367,0.108,2.016,0.108c2.16,0,4.283-0.612,5.832-1.872
		c2.051-1.655,3.455-4.212,3.455-7.775L410.249,291.435L410.249,291.435z"/>
</g>
</svg>
