<?xml version="1.0" encoding="iso-8859-1"?>
<!-- Generator: Adobe Illustrator 19.0.0, SVG Export Plug-In . SVG Version: 6.00 Build 0)  -->
<svg version="1.1" id="Layer_1" xmlns="http://www.w3.org/2000/svg" xmlns:xlink="http://www.w3.org/1999/xlink" x="0px" y="0px"
	 viewBox="0 0 65.6 56.5" style="enable-background:new 0 0 65.6 56.5;" xml:space="preserve">
<g>
	<g>
		<path style="fill:#010101;" d="M54.6,56.5H11c-0.6,0-1.2-0.2-1.6-0.7C3.3,49.6,0,41.5,0,32.8C0,14.7,14.7,0,32.8,0
			s32.8,14.7,32.8,32.8c0,8.6-3.3,16.8-9.4,23C55.8,56.3,55.2,56.5,54.6,56.5z M12,52h41.6c4.8-5.2,7.5-12,7.5-19.1
			c0-15.6-12.7-28.3-28.3-28.3S4.5,17.3,4.5,32.9C4.5,40,7.2,46.8,12,52z"/>
	</g>
	<path style="fill:#010101;" d="M55.5,32.7c-0.3-0.9-1.4-1.4-2.3-1.1l-16.5,6.2c0,0-0.1,0-0.1,0.1c-1.1-0.9-2.4-1.5-3.9-1.5
		c-1,0-2,0.3-2.9,0.8c-2.8,1.6-3.7,5.2-2.1,7.9c1,1.8,3,2.9,5,2.9c1,0,2-0.3,2.9-0.8c2.2-1.3,3.3-3.8,2.8-6.2l16-6
		C55.4,34.6,55.9,33.6,55.5,32.7z M33.9,44.1c-1,0.6-2.4,0.2-3-0.8c-0.6-1.1-0.2-2.4,0.8-3c0.3-0.2,0.7-0.3,1.1-0.3
		c0.8,0,1.5,0.4,1.9,1.1C35.3,42.1,34.9,43.5,33.9,44.1z"/>
</g>
</svg>
