<?xml version="1.0" encoding="iso-8859-1"?>
<!-- Generator: Adobe Illustrator 19.0.0, SVG Export Plug-In . SVG Version: 6.00 Build 0)  -->
<svg version="1.1" id="Layer_1" xmlns="http://www.w3.org/2000/svg" xmlns:xlink="http://www.w3.org/1999/xlink" x="0px" y="0px"
	 viewBox="0 0 33.4 60.3" style="enable-background:new 0 0 33.4 60.3;" xml:space="preserve">
<g id="XMLID_2_">
	<path id="XMLID_4_" style="fill:#010101;" d="M25.7,4.6h-3.1l-0.2-1.8c0-1.6-1.3-2.8-2.8-2.8h-5.7c-1.6,0-2.8,1.3-2.8,2.8l-0.2,1.8
		H7.7C3.5,4.6,0,8,0,12.3v40.3c0,4.2,3.4,7.7,7.7,7.7h18c4.2,0,7.7-3.4,7.7-7.7V12.3C33.4,8.1,30,4.6,25.7,4.6z M29.4,52.6
		c0,2-1.6,3.7-3.7,3.7h-18c-2,0-3.7-1.6-3.7-3.7V12.3c0-2,1.6-3.7,3.7-3.7h2.6h12.9h2.6c2,0,3.7,1.6,3.7,3.7L29.4,52.6L29.4,52.6z"
		/>
	<polygon id="XMLID_3_" style="fill:#010101;" points="20.3,19.2 11.1,34.1 15.8,34.1 13,45.4 22.4,30 18,30 	"/>
</g>
</svg>
