<?xml version="1.0" encoding="iso-8859-1"?>
<!-- Generator: Adobe Illustrator 19.0.0, SVG Export Plug-In . SVG Version: 6.00 Build 0)  -->
<svg version="1.1" id="Layer_1" xmlns="http://www.w3.org/2000/svg" xmlns:xlink="http://www.w3.org/1999/xlink" x="0px" y="0px"
	 viewBox="0 0 71.681 62.008" style="enable-background:new 0 0 71.681 62.008;" xml:space="preserve">
<path style="fill:#010101;" d="M70.146,12.308c-2.1-4.1-6.4-6.7-12.6-7.9c-6.6-1.2-11.6-0.1-15,3.1c-4,3.9-4.4,9.7-4.3,12.7
	c-4.8,0.4-10.1,2.2-14.5,6.6c-1.3-1.6-3.8-4.2-5.5-5.3c-1-0.6-2.5-4.7-3-7.1c1,0,1.9-0.1,2.9-0.3c5.9-1.3,8-4.4,7.5-6.9
	c-0.4-2.1-3.4-6.2-5.5-7c-1.1-0.4-3-0.2-7.5,0.4c-2.1,0.3-4.3,0.6-5.4,0.6c-4.1,0-7.1,2.1-7.1,5c0,0.4,0,1.4,0.1,2.7
	c0.1,4.4,0.4,13.4,0,16c-0.6,3-0.7,23.4,7,31.2c0.2,1.7,0.8,4.9,3.4,5.1c0.1,0,0.2,0,0.4,0.1c3.2,0.5,6.3,0.7,9,0.7
	c5.5,0,9.9-0.8,13.1-1.7c13.3-3.6,23.1-12.6,29.1-26.6c0.1,0,0.2,0,0.3,0c1,0,2.1-0.2,3.1-0.6c1.5-0.6,2.6-1.8,3.2-3.3l0.1-0.2
	C70.846,26.008,73.346,18.408,70.146,12.308z M65.746,28.408c-0.1,0.2-0.1,0.3-0.1,0.3c-0.3,0.6-0.7,1.1-1.2,1.3
	c-1.7,0.7-4.5-0.1-5.4-0.5s-2,0.1-2.4,1s0.1,2,1,2.4c0.1,0.1,0.5,0.2,1.1,0.4c-12.2,27.1-36.8,26.3-47,24.6c-0.1,0-0.2,0-0.3,0
	c-0.2-0.4-0.5-1.6-0.5-2.5c0-0.5-0.2-0.9-0.6-1.3c-6.6-5.8-7-25.2-6.4-28.3c0.5-2.7,0.3-10.1,0.1-16.8c0-1.3-0.1-2.2-0.1-2.6
	s1.3-1.4,3.5-1.4c1.3,0,3.6-0.3,5.9-0.6c2-0.3,5-0.7,5.8-0.6c0.9,0.5,2.9,3.2,3.2,4.3c0.1,0.3-1,1.9-4.8,2.7
	c-3.8,0.8-8.2-1.3-8.3-1.4c-0.9-0.4-2-0.1-2.4,0.8s-0.1,2,0.8,2.4c0.1,0.1,1.8,0.9,4.1,1.4c0.4,3,2.3,9.1,4.8,10.7
	c1.2,0.8,3.5,3.2,5,5c-1.5,2-2.8,4.5-3.9,7.4c-0.3,0.9,0.1,2,1.1,2.3c0.2,0.1,0.4,0.1,0.6,0.1c0.7,0,1.4-0.4,1.7-1.2
	c7.1-19,24.4-14,25.1-13.8c1,0.3,2-0.2,2.2-1.2c0.3-1-0.2-2-1.2-2.2c-1.5-0.4-3.2-0.8-5.2-0.9c-0.1-2.4,0.2-7.2,3.2-10.1
	c2.5-2.4,6.5-3.1,11.8-2.2c5.1,0.9,8.5,2.9,10.1,6C68.846,17.408,68.346,22.708,65.746,28.408z"/>
</svg>
